<svg width="379" height="248" viewBox="0 0 379 248" fill="none" xmlns="http://www.w3.org/2000/svg">
<path d="M23.0499 20.9849L10.2611 233.658C10.1206 235.995 12.008 237.953 14.3484 237.897L364.722 229.613C367.212 229.554 369.044 227.257 368.547 224.816L325.664 14.1335C324.923 10.49 320.046 9.74114 318.245 12.9943L267.006 105.569C265.598 108.114 262.031 108.353 260.296 106.019L194.372 17.3626C192.879 15.3544 189.929 15.195 188.228 17.0306L124.468 85.8366C123.068 87.3474 120.75 87.548 119.111 86.3002L29.4659 18.0426C26.9202 16.1042 23.242 17.791 23.0499 20.9849Z" stroke="white" stroke-width="20" stroke-linecap="round"/>
</svg>
